PathFileType	4	(X/Y/Z)	/home/abdul/Desktop/myosuite/custom_workspace/IK/output/S16_12_2.trc
DataRate	CameraRate	NumFrames	NumMarkers	Units	OrigDataRate	OrigDataStartFrame	OrigNumFrames
200.0	200.0	67	3	mm	200.0	641	1280
Frame#	Time	V_Shoulder			V_Elbow			V_Wrist		
		X1	Y1	Z1	X2	Y2	Z2	X3	Y3	Z3

641	3.2	-127.79074012010283	603.4038779103839	300.78298304922424	-256.8761445678141	432.51762933727946	58.858329970662	-103.34430239176174	267.10996288898934	158.62993285534634
642	3.205	-127.6323805015265	603.1333925130373	300.7543629612573	-256.7118945999041	432.37050984255177	58.639783095661215	-103.18490692058657	265.6380556514782	156.46165113224572
643	3.21	-127.47088072555634	602.8607945330592	300.7267714265685	-256.5422871953059	432.21909639144656	58.42425539819792	-103.03190898364193	264.19462400049787	154.3107631436676
644	3.215	-127.30631089592798	602.5861458993587	300.70022978212984	-256.36761564511943	432.0635741509394	58.211834418592105	-102.88550700492415	262.7797425413757	152.17842255004845
645	3.22	-127.13874383297768	602.3095113382429	300.6747588367452	-256.1881812755353	431.90412967689343	58.002612420864196	-102.74588734280707	261.3934344024515	150.06574839258434
646	3.225	-126.96825497109982	602.030958297354	300.65037882196907	-256.00429262501666	431.74095037069407	57.796686216672555	-102.6132238912723	260.03567285064844	147.973823802097
647	3.23	-126.79492225374167	601.7505568638647	300.62710934178534	-255.81626460249558	431.5742239508063	57.594156946378206	-102.48767770494737	258.706383018056	145.90369479986396
648	3.235	-126.61882602618734	601.4683796771633	300.60496932119224	-255.62441762929961	431.4041379408937	57.39512981832824	-102.36939664861674	257.4054437306076	143.85636919147603
649	3.24	-126.44004892637928	601.1845018362613	300.58397695384866	-255.42907676757426	431.2308791760088	57.19971380770758	-102.25851507183901	256.1326894297382	141.832815554498
650	3.245	-126.25867577402063	600.8990008021806	300.5641496489459	-255.23057083800944	431.0546333282316	57.008021316556786	-102.15515350927537	254.88791217774525	139.83396232042293
651	3.25	-126.07479345819714	600.6119562955794	300.54550397748017	-255.02923152970826	430.8755844529963	56.82016779678998	-102.05941840730783	253.67086373746753	137.86069695113093
652	3.255	-125.8884908237505	600.3234501898932	300.5280556181082	-254.82539250506082	430.69391455720836	56.63627133827021	-101.9714018775	252.48125771682095	135.91386520978847
653	3.26	-125.69985855662988	600.0335664002722	300.5118193027777	-254.61938850249555	430.5098031901221	56.456452224208604	-101.89118147742963	251.31877176870586	133.99427052585537
654	3.265	-125.50898906844027	599.7423907686116	300.49680876233106	-254.41155443998375	430.32342705780513	56.28083245634711	-101.81882001939974	250.18304983681128	132.10267345360558
655	3.27	-125.31597638039968	599.4500109449708	300.4830366722873	-254.20222452216484	430.1349596618869	56.10953525256166	-101.75436540751326	249.0737044378963	130.2397912233153
656	3.275	-125.12091600690883	599.1565162656923	300.47051459901314	-253.99173135394233	429.94457096315347	55.94268451968176	-101.69785050357444	247.99031897122148	128.40629738402654
657	3.28	-124.92390483892954	598.8619976285318	300.4592529464989	-253.7804050633731	429.7524270704202	55.7804043044636	-101.64929302225914	246.932450045933	126.6028215365605
658	3.285	-124.72504102735878	598.5665473651164	300.4492609039583	-253.568572436635	429.55868995498815	55.62281822577608	-101.60869545597436	245.89962981737034	124.82994915523093
659	3.29	-124.52442386657748	598.2702591110545	300.44054639447637	-253.35655606781148	429.3635171908671	55.4700488911614	-101.57604502980433	244.89136832346935	123.0882214964941
660	3.295	-124.3221536783437	597.97322767402	300.433116024928	-253.14467352617555	429.1670617208308	55.32221730101476	-101.5513136869171	243.90715581266664	121.37813559257054
661	3.3	-124.118331696192	597.6755489001358	300.4269750373931	-252.93323654359006	428.9694716482567	55.17944224369005	-101.53445810477936	242.94646505497758	119.7001443278854
662	3.305	-123.91305995049	597.3773195389857	300.4221272622959	-252.72255022456648	428.77089005459504	55.04183968488074	-101.52541974250006	242.00875362821336	118.05465659599682
663	3.31	-123.70644115429656	597.0786371075769	300.4185750734899	-252.51291228144225	428.57145484221286	54.90952215464731	-101.52412491959235	241.09346617162535	116.44203753451959
664	3.315	-123.49857859015485	596.7795997535826	300.4163193455134	-252.3046122970449	428.37129860226025	54.78259813546403	-101.53048492641028	240.20003659960926	114.86260883540102
665	3.32	-123.2895759979465	596.4803061181822	300.4153594132347	-252.09793101711085	428.170548507121	54.66117145464073	-101.54439616647988	239.32789026847283	113.31664912777184
666	3.325	-123.07953746392337	596.1808551988203	300.4156930341015	-251.8931396746213	427.9693262269252	54.54534068443732	-101.56574033090399	238.4764460896577	111.80439443047209
667	3.33	-122.86856731102546	595.8813462122015	300.41731635320645	-251.69049934810164	427.76774786952757	54.435198553133105	-101.594384604975	237.645118583215	110.32603867124672
668	3.335	-122.65676999058515	595.581878457828	300.42022387137087	-251.4902603558106	427.56592394328493	54.330831370238734	-101.63018190708158	236.83331986575632	108.88173426951246
669	3.34	-122.44424997551032	595.2825511823856	300.42440841644543	-251.2926616876165	427.36395934190773	54.2323184689468	-101.67297115994131	236.04046156753935	107.47159277951977
670	3.345	-122.23111165503042	594.9834634452754	300.42986111801486	-251.0979304762256	427.16195335060104	54.139731668809006	-101.72257759413336	235.26595667379453	106.09568559067054
671	3.35	-122.01745923108358	594.6847139855835	300.4365713856881	-250.90628150928694	426.9599996726665	54.05313476150389	-101.77881308384157	234.50922128585708	104.75404468170379
672	3.355	-121.80339661641464	594.3864010907661	300.44452689114127	-250.7179167837552	426.758186475691	53.972583022420885	-101.84147651465068	233.76967629813126	103.4466634254263
673	3.36	-121.58902733444872	594.0886224673307	300.45371355407315	-250.53302510374274	426.5565964564139	53.89812275063428	-101.91035418316497	233.0467489873829	102.17349744064506
674	3.365	-121.3744544209975	593.7914751137686	300.46411553222003	-250.3517817229426	426.35530692333515	53.829790839676676	-101.98522022814015	232.33987451132617	100.93446548795112
675	3.37	-121.15978032785102	593.4950551960018	300.4757152155633	-250.17434803254378	426.15438989610095	53.76761438134614	-102.06583709273653	231.64849731394065	99.72945040601107
676	3.375	-120.94510682830175	593.1994579255804	300.4884932248509	-250.00087129540566	425.9539122206864	53.71161030459612	-102.15195601741326	230.9720724354242	98.55830008504107
677	3.38	-120.73053492464321	592.904777440869	300.5024284145381	-249.83148442709495	425.7539356993814	53.66178505136325	-102.24331756289115	230.31006672515048	97.42082847416981
678	3.385	-120.51616475768144	592.6111066914376	300.51749788024085	-249.66630582422746	425.55451723457577	53.618134290987605	-102.33965216251522	229.66195995645916	96.31681661944
679	3.39	-120.30209551829326	592.3185373258722	300.53367697077647	-249.50543924039187	425.3557089853373	53.58064267467284	-102.44068070324704	229.0272458425562	95.2460137292519
680	3.395	-120.08842536106242	592.0271595831966	300.5509393048523	-249.34897370977006	425.15755853577457	53.54928363122228	-102.54611513441333	228.40543295324306	94.20813826411649
681	3.4	-119.87525132002116	591.7370621880959	300.56925679244773	-249.19698351840424	424.9601090741824	53.524019205072236	-102.65565910323063	227.79604553262232	93.20287904766045
682	3.405	-119.66266922652368	591.4483322501086	300.5885996609145	-249.04952822289653	424.7633995819714	53.504799937427464	-102.76900861601595	227.19862421834313	92.22989639590733
683	3.41	-119.45077362927402	591.1610551669487	300.6089364858069	-248.9066527161674	424.5674650313965	53.49156479108598	-102.8858527238825	226.61272666335077	91.28882326195011
684	3.415	-119.23965771653177	590.8753145321051	300.6302342264343	-248.76838733973614	424.37233659110916	53.48424111932392	-103.00587423160744	226.0379280614899	90.37926639322822
685	3.42	-119.02941324051511	590.5911920468466	300.65245826611044	-248.6347480418318	424.17804183857334	53.482744678996184	-103.12875042824584	225.47382157867838	89.50080749872575
686	3.425	-118.82013044402292	590.3087674367569	300.6755724570583	-248.50573658048614	423.9846049784044	53.486979687796484	-103.25415383795186	224.9200186917172	88.6530044235177
687	3.43	-118.61189798929446	590.0281183729016	300.69953916990863	-248.3813407706112	423.7920470657033	53.49683892541253	-103.38175298935802	224.37614943713157	87.8353923282039
688	3.435	-118.40480288912772	589.7493203977228	300.72431934771487	-248.26153477391512	423.6003862334845	53.51220387810898	-103.51121320175224	223.84186257274519	87.04748487088816
689	3.44	-118.19893044027606	589.4724468557389	300.7498725643888	-248.14627943036925	423.40963792331144	53.532944926074165	-103.64219738618664	223.31682565497653	86.28877538947962
690	3.445	-117.99436415914442	589.1975688291164	300.77615708744287	-248.03552262980045	423.21981511827715	53.55892157267672	-103.77436685954763	222.8007250351103	85.5587380822148
691	3.45	-117.79118571980682	588.9247550781672	300.8031299449101	-247.92919972205183	423.030928577491	53.58998271459594	-103.90738216951792	222.2932657780364	84.85682918442073
692	3.455	-117.58947489436792	588.6540719868109	300.8307469962935	-247.827233964029	422.8429870712514	53.62596695161639	-104.04090392826636	221.79417150716677	84.18248813966201
693	3.46	-117.38930949569324	588.3855835130302	300.8589630073813	-247.7295370018295	422.6559976161101	53.6667029347128	-104.17459365261362	221.3031841794324	83.53513876353529
694	3.465	-117.19076532253342	588.1193511443354	300.88773172874886	-247.6360093860402	422.46996570905486	53.71200975089685	-104.30811460833955	220.8200637944313	82.91419039849396
695	3.47	-116.99391610706967	587.8554338582389	300.91700597775224	-247.5465411181819	422.2848955600607	53.761697343153266	-104.44113265622457	220.34458804194216	82.319039058203
696	3.475	-116.79883346490963	587.5938880877336	300.94673772380247	-247.46101222618296	422.1007903222818	53.81556696365944	-104.57331709735088	219.87655189213675	81.7490685600364
697	3.48	-116.60558684756383	587.3347676917514	300.9768781766985	-247.37929336667221	421.91765231917884	53.873411658360055	-104.70434151513294	219.41576713291892	81.2036516444401
698	3.485	-116.41424349743527	587.0781239305743	301.00737787777956	-247.30124645180092	421.7354832678994	53.935016780857694	-104.83388461149889	218.96206185888758	80.68215107998779
699	3.49	-116.22486840535578	586.8240054461511	301.03818679364724	-247.22672529822842	421.55428449824933	54.000160533480965	-104.96163103460799	218.51527991646782	80.18392075305675
700	3.495	-116.0375242707051	586.5724582472702	301.0692544121969	-247.15557629584197	421.3740571666182	54.068614533304086	-105.08727219546238	218.07528030977505	79.70830674114532
701	3.5	-115.85227146414941	586.3235256995234	301.1005298406838	-247.0876390937249	421.1948024642382	54.1401444008159	-105.21050707075648	217.64193657177805	79.25464836894187
702	3.505	-115.6691679930379	586.0772485199883	301.13196190554316	-247.022747300839	421.0165218191855	54.21451036887243	-105.33104298930428	217.21513610530138	78.82227924633713
703	3.51	-115.48826946949725	585.8336647765473	301.1634992536729	-246.96072919885006	420.8392170915462	54.291467909514516	-105.44859639939283	216.79477949836402	78.41052828764722
704	3.515	-115.30962908126435	585.5928098917525	301.1950904548801	-246.90140846449614	420.662890761198	54.370768376191066	-105.56289361443206	216.38077981828292	78.01872071138337
705	3.52	-115.13329756529932	585.354716651137	301.2266841051851	-246.84460489887786	420.48754610767867	54.452159658899134	-105.67367153430337	215.97306188888535	77.64617901996607
706	3.525	-114.95932318422017	585.119415215866	301.2582289306736	-246.79013516104084	420.3131873816319	54.53538684973314	-105.78067833985594	215.57156155506866	77.29222395883681
707	3.53	-114.7877517056016	584.8869331396123	301.2896738915802	-246.7378135032183	420.13981996735095	54.620192916328264	-105.88367415805803	215.1762249388207	76.95617545446802
